<mxfile host="app.diagrams.net" modified="2024-05-20T09:04:12.946Z" agent="Mozilla/5.0 (Macintosh; Intel Mac OS X 10_15_7) AppleWebKit/537.36 (KHTML, like Gecko) Chrome/122.0.0.0 Safari/537.36" etag="97s6_K9IUaTG-yM-apYz" version="24.2.5" type="github">
  <diagram name="Page-1" id="xjiAPtrzyKvg3kKw2uAh">
    <mxGraphModel dx="5254" dy="1838" grid="1" gridSize="10" guides="1" tooltips="1" connect="1" arrows="1" fold="1" page="1" pageScale="1" pageWidth="850" pageHeight="600" math="0" shadow="0">
      <root>
        <mxCell id="0" />
        <mxCell id="1" parent="0" />
        <mxCell id="b_SJug2i7i0UwpOHzamp-166" value="" style="rounded=0;whiteSpace=wrap;html=1;gradientColor=default;fillColor=none;strokeColor=#0d4cde;strokeWidth=1;" vertex="1" parent="1">
          <mxGeometry x="-3722" y="-310" width="96" height="20" as="geometry" />
        </mxCell>
        <mxCell id="b_SJug2i7i0UwpOHzamp-167" value="" style="rounded=0;whiteSpace=wrap;html=1;gradientColor=default;fillColor=none;strokeColor=#0d4cde;strokeWidth=1;" vertex="1" parent="1">
          <mxGeometry x="-4222" y="-310" width="96" height="20" as="geometry" />
        </mxCell>
        <mxCell id="b_SJug2i7i0UwpOHzamp-20" value="To Dual-Stack -- Server APP" style="rounded=0;whiteSpace=wrap;html=1;align=left;fontSize=14;strokeColor=none;labelBorderColor=none;fontStyle=1;fillColor=none;" vertex="1" parent="1">
          <mxGeometry x="-4223" y="40" width="245" height="40" as="geometry" />
        </mxCell>
        <mxCell id="b_SJug2i7i0UwpOHzamp-3" value="Host Node" style="whiteSpace=wrap;html=1;rounded=1;fillColor=#dae8fc;strokeColor=none;verticalAlign=bottom;align=right;" vertex="1" parent="1">
          <mxGeometry x="-4214" y="342" width="220" height="145" as="geometry" />
        </mxCell>
        <mxCell id="b_SJug2i7i0UwpOHzamp-48" value="" style="group" vertex="1" connectable="0" parent="1">
          <mxGeometry x="-4204" y="360" width="210" height="120" as="geometry" />
        </mxCell>
        <mxCell id="b_SJug2i7i0UwpOHzamp-22" value="&lt;div style=&quot;&quot;&gt;&lt;span style=&quot;background-color: initial;&quot;&gt;NIC&amp;nbsp;&lt;/span&gt;&lt;/div&gt;" style="rounded=1;whiteSpace=wrap;html=1;fontSize=10;strokeWidth=1;strokeColor=none;fillColor=#fff2cc;align=center;" vertex="1" parent="b_SJug2i7i0UwpOHzamp-48">
          <mxGeometry y="85" width="200" height="20" as="geometry" />
        </mxCell>
        <mxCell id="b_SJug2i7i0UwpOHzamp-24" value="IPv6&lt;div&gt;&lt;div&gt;2001:db8:abcd:0012::1/64&lt;/div&gt;&lt;/div&gt;" style="rounded=1;whiteSpace=wrap;html=1;fontSize=10;strokeWidth=1;strokeColor=none;fillColor=#f8cecc;fontStyle=1" vertex="1" parent="b_SJug2i7i0UwpOHzamp-48">
          <mxGeometry x="80" y="26" width="120" height="27.5" as="geometry" />
        </mxCell>
        <mxCell id="b_SJug2i7i0UwpOHzamp-43" value="Data Link Layer" style="rounded=1;whiteSpace=wrap;html=1;fontSize=10;strokeWidth=1;strokeColor=none;fillColor=#fff2cc;align=center;" vertex="1" parent="b_SJug2i7i0UwpOHzamp-48">
          <mxGeometry y="59" width="200" height="20" as="geometry" />
        </mxCell>
        <mxCell id="b_SJug2i7i0UwpOHzamp-46" value="IPv4&lt;div&gt;192.168.1.1/24&lt;/div&gt;" style="rounded=1;whiteSpace=wrap;html=1;fontSize=10;strokeWidth=1;strokeColor=none;fillColor=#f8cecc;fontStyle=1" vertex="1" parent="b_SJug2i7i0UwpOHzamp-48">
          <mxGeometry y="25" width="70" height="29.5" as="geometry" />
        </mxCell>
        <mxCell id="b_SJug2i7i0UwpOHzamp-47" value="TCP/UDP" style="rounded=1;whiteSpace=wrap;html=1;fontSize=10;strokeWidth=1;strokeColor=none;fillColor=#fff2cc;align=center;" vertex="1" parent="b_SJug2i7i0UwpOHzamp-48">
          <mxGeometry width="200" height="20" as="geometry" />
        </mxCell>
        <mxCell id="b_SJug2i7i0UwpOHzamp-78" value="" style="curved=1;endArrow=classic;html=1;rounded=0;strokeWidth=3;exitX=0.5;exitY=1;exitDx=0;exitDy=0;strokeColor=#6c8ebf;entryX=0.5;entryY=0;entryDx=0;entryDy=0;" edge="1" parent="b_SJug2i7i0UwpOHzamp-48" source="b_SJug2i7i0UwpOHzamp-47" target="b_SJug2i7i0UwpOHzamp-22">
          <mxGeometry width="50" height="50" relative="1" as="geometry">
            <mxPoint x="275" y="75" as="sourcePoint" />
            <mxPoint x="275" y="10" as="targetPoint" />
            <Array as="points">
              <mxPoint x="45" y="30" />
              <mxPoint x="25" y="40" />
              <mxPoint x="25" y="60" />
              <mxPoint x="45" y="70" />
              <mxPoint x="85" y="60" />
            </Array>
          </mxGeometry>
        </mxCell>
        <mxCell id="b_SJug2i7i0UwpOHzamp-49" value="Host Node" style="whiteSpace=wrap;html=1;rounded=1;fillColor=#dae8fc;strokeColor=none;verticalAlign=bottom;align=right;" vertex="1" parent="1">
          <mxGeometry x="-3823" y="340.5" width="220" height="145" as="geometry" />
        </mxCell>
        <mxCell id="b_SJug2i7i0UwpOHzamp-50" value="" style="group" vertex="1" connectable="0" parent="1">
          <mxGeometry x="-3813" y="359.5" width="210" height="120" as="geometry" />
        </mxCell>
        <mxCell id="b_SJug2i7i0UwpOHzamp-51" value="&lt;div style=&quot;&quot;&gt;&lt;span style=&quot;background-color: initial;&quot;&gt;NIC&amp;nbsp;&lt;/span&gt;&lt;/div&gt;" style="rounded=1;whiteSpace=wrap;html=1;fontSize=10;strokeWidth=1;strokeColor=none;fillColor=#fff2cc;align=center;" vertex="1" parent="b_SJug2i7i0UwpOHzamp-50">
          <mxGeometry y="85" width="200" height="20" as="geometry" />
        </mxCell>
        <mxCell id="b_SJug2i7i0UwpOHzamp-52" value="IPv6&lt;div&gt;&lt;div&gt;2001:db8:abcd:0013::1/64&lt;/div&gt;&lt;/div&gt;" style="rounded=1;whiteSpace=wrap;html=1;fontSize=10;strokeWidth=1;strokeColor=none;fillColor=#f8cecc;fontStyle=1" vertex="1" parent="b_SJug2i7i0UwpOHzamp-50">
          <mxGeometry x="80" y="26" width="120" height="27.5" as="geometry" />
        </mxCell>
        <mxCell id="b_SJug2i7i0UwpOHzamp-53" value="Data Link Layer" style="rounded=1;whiteSpace=wrap;html=1;fontSize=10;strokeWidth=1;strokeColor=none;fillColor=#fff2cc;align=center;" vertex="1" parent="b_SJug2i7i0UwpOHzamp-50">
          <mxGeometry y="59" width="200" height="20" as="geometry" />
        </mxCell>
        <mxCell id="b_SJug2i7i0UwpOHzamp-54" value="IPv4&lt;div&gt;192.168.2.1/24&lt;/div&gt;" style="rounded=1;whiteSpace=wrap;html=1;fontSize=10;strokeWidth=1;strokeColor=none;fillColor=#f8cecc;fontStyle=1" vertex="1" parent="b_SJug2i7i0UwpOHzamp-50">
          <mxGeometry y="25" width="70" height="29.5" as="geometry" />
        </mxCell>
        <mxCell id="b_SJug2i7i0UwpOHzamp-55" value="TCP/UDP" style="rounded=1;whiteSpace=wrap;html=1;fontSize=10;strokeWidth=1;strokeColor=none;fillColor=#fff2cc;align=center;" vertex="1" parent="b_SJug2i7i0UwpOHzamp-50">
          <mxGeometry width="200" height="20" as="geometry" />
        </mxCell>
        <mxCell id="b_SJug2i7i0UwpOHzamp-60" value="" style="curved=1;endArrow=classic;html=1;rounded=0;strokeWidth=3;exitX=0.5;exitY=0;exitDx=0;exitDy=0;entryX=0.5;entryY=1;entryDx=0;entryDy=0;strokeColor=#6c8ebf;" edge="1" parent="b_SJug2i7i0UwpOHzamp-50" source="b_SJug2i7i0UwpOHzamp-51" target="b_SJug2i7i0UwpOHzamp-55">
          <mxGeometry width="50" height="50" relative="1" as="geometry">
            <mxPoint x="90" y="100.5" as="sourcePoint" />
            <mxPoint x="140" y="50.5" as="targetPoint" />
            <Array as="points">
              <mxPoint x="95" y="60.5" />
              <mxPoint x="40" y="80.5" />
              <mxPoint x="20" y="30.5" />
              <mxPoint x="65" y="40.5" />
            </Array>
          </mxGeometry>
        </mxCell>
        <mxCell id="b_SJug2i7i0UwpOHzamp-10" value="IPv4" style="endArrow=classic;html=1;rounded=0;exitX=1;exitY=0.5;exitDx=0;exitDy=0;fillColor=#dae8fc;strokeColor=#6c8ebf;edgeStyle=orthogonalEdgeStyle;strokeWidth=3;entryX=0.5;entryY=1;entryDx=0;entryDy=0;" edge="1" parent="1" source="b_SJug2i7i0UwpOHzamp-4" target="b_SJug2i7i0UwpOHzamp-51">
          <mxGeometry width="50" height="50" relative="1" as="geometry">
            <mxPoint x="-3843" y="474" as="sourcePoint" />
            <mxPoint x="-3708" y="472" as="targetPoint" />
          </mxGeometry>
        </mxCell>
        <mxCell id="b_SJug2i7i0UwpOHzamp-56" value="APP&lt;div&gt;&lt;div style=&quot;&quot;&gt;&lt;span style=&quot;background-color: initial;&quot;&gt;IPv6-Only&lt;/span&gt;&lt;/div&gt;&lt;div data-sider-select-id=&quot;33506169-b03d-43fa-859e-f544d424c816&quot;&gt;&lt;br&gt;&lt;/div&gt;&lt;/div&gt;" style="rounded=1;whiteSpace=wrap;html=1;fillColor=#dae8fc;strokeColor=none;align=center;verticalAlign=middle;" vertex="1" parent="1">
          <mxGeometry x="-3818" y="180" width="220" height="66" as="geometry" />
        </mxCell>
        <mxCell id="b_SJug2i7i0UwpOHzamp-57" value="&lt;span style=&quot;font-size: 8px;&quot; class=&quot;s1&quot;&gt;&amp;nbsp; &amp;nbsp;// IPv6 socket setup&lt;/span&gt;&lt;br&gt;&lt;span style=&quot;font-size: 8px;&quot; class=&quot;s1&quot;&gt;&lt;span style=&quot;font-size: 8px;&quot; class=&quot;Apple-converted-space&quot;&gt;&amp;nbsp;&amp;nbsp; &lt;/span&gt;server_fd = &lt;b&gt;socket(AF_INET6, SOCK_STREAM, 0);&lt;/b&gt;&lt;/span&gt;&lt;br&gt;&lt;span style=&quot;font-size: 8px;&quot; class=&quot;s1&quot;&gt;&lt;span style=&quot;font-size: 8px;&quot; class=&quot;Apple-converted-space&quot;&gt;&amp;nbsp;&amp;nbsp; &lt;/span&gt;// Diable IPv6 Only&lt;/span&gt;&lt;br&gt;&lt;span style=&quot;font-size: 8px;&quot; class=&quot;s1&quot;&gt;&lt;span style=&quot;font-size: 8px;&quot; class=&quot;Apple-converted-space&quot;&gt;&amp;nbsp;&amp;nbsp; &lt;/span&gt;int ipv6only = 0;&lt;/span&gt;&lt;br&gt;&lt;span style=&quot;font-size: 8px;&quot; class=&quot;s1&quot;&gt;&lt;span style=&quot;font-size: 8px;&quot; class=&quot;Apple-converted-space&quot;&gt;&amp;nbsp;&amp;nbsp; &lt;/span&gt;&lt;b&gt;setsockopt(server_fd, IPPROTO_IPV6, IPV6_V6ONLY, &amp;amp;ipv6only, sizeof(ipv6only))&lt;/b&gt;&lt;/span&gt;&lt;br&gt;&lt;span style=&quot;font-size: 8px;&quot; class=&quot;s1&quot;&gt;&lt;span style=&quot;font-size: 8px;&quot; class=&quot;Apple-converted-space&quot;&gt;&amp;nbsp;&amp;nbsp; &lt;/span&gt;// Bind to IPv6 wildcard address, the IPv4 client address is interpreted as &lt;span style=&quot;font-size: 8px;&quot; class=&quot;Apple-converted-space&quot;&gt;&amp;nbsp;&lt;/span&gt;&lt;/span&gt;&lt;br&gt;&lt;span style=&quot;font-size: 8px;&quot; class=&quot;s1&quot;&gt;&lt;span style=&quot;font-size: 8px;&quot; class=&quot;Apple-converted-space&quot;&gt;&amp;nbsp;&amp;nbsp; &lt;/span&gt;// IPv4-mapped IPv6 address in the dual-stack node&lt;/span&gt;&lt;br&gt;&lt;span style=&quot;font-size: 8px;&quot; class=&quot;s1&quot;&gt;&lt;span style=&quot;font-size: 8px;&quot; class=&quot;Apple-converted-space&quot;&gt;&amp;nbsp;&amp;nbsp; &lt;/span&gt;struct sockaddr_in6 address6;&lt;/span&gt;&lt;br&gt;&lt;span style=&quot;font-size: 8px;&quot; class=&quot;s1&quot;&gt;&lt;span style=&quot;font-size: 8px;&quot; class=&quot;Apple-converted-space&quot;&gt;&amp;nbsp;&amp;nbsp; &lt;/span&gt;address6.sin6_family = AF_INET6;&lt;/span&gt;&lt;br&gt;&lt;span style=&quot;font-size: 8px;&quot; class=&quot;s1&quot;&gt;&lt;span style=&quot;font-size: 8px;&quot; class=&quot;Apple-converted-space&quot;&gt;&amp;nbsp;&amp;nbsp; &lt;/span&gt;address6.sin6_port = htons(8080);&lt;/span&gt;&lt;br&gt;&lt;span style=&quot;font-size: 8px;&quot; class=&quot;s1&quot;&gt;&lt;span style=&quot;font-size: 8px;&quot; class=&quot;Apple-converted-space&quot;&gt;&amp;nbsp;&amp;nbsp; &lt;/span&gt;addrlen = sizeof(address6);&lt;/span&gt;&lt;br&gt;&lt;span style=&quot;font-size: 8px;&quot; class=&quot;s1&quot;&gt;&lt;span style=&quot;font-size: 8px;&quot; class=&quot;Apple-converted-space&quot;&gt;&amp;nbsp;&amp;nbsp; &lt;/span&gt;address6.sin6_addr =&lt;b&gt; in6addr_any&lt;/b&gt;;&lt;/span&gt;&lt;br&gt;&lt;span style=&quot;font-size: 8px;&quot; class=&quot;s1&quot;&gt;&lt;span style=&quot;font-size: 8px;&quot; class=&quot;Apple-converted-space&quot;&gt;&amp;nbsp;&amp;nbsp; &lt;/span&gt;bind(server_fd, (struct sockaddr *)&amp;amp;address6, sizeof(address6))&lt;/span&gt;&lt;br&gt;&lt;p style=&quot;font-size: 8px;&quot; class=&quot;p2&quot;&gt;&lt;span style=&quot;font-size: 8px;&quot; class=&quot;s1&quot;&gt;&lt;span style=&quot;font-size: 8px;&quot; class=&quot;Apple-converted-space&quot;&gt;&amp;nbsp;&amp;nbsp; &amp;nbsp;&lt;/span&gt;&lt;/span&gt;&lt;/p&gt;" style="text;whiteSpace=wrap;html=1;fontSize=8;" vertex="1" parent="1">
          <mxGeometry x="-3598" y="180" width="185" height="200" as="geometry" />
        </mxCell>
        <mxCell id="b_SJug2i7i0UwpOHzamp-58" value="bind(&quot;::&quot;)" style="endArrow=classic;html=1;rounded=0;exitX=0.25;exitY=1;exitDx=0;exitDy=0;fillColor=#dae8fc;strokeColor=#6c8ebf;edgeStyle=orthogonalEdgeStyle;strokeWidth=1;" edge="1" parent="1" source="b_SJug2i7i0UwpOHzamp-56">
          <mxGeometry width="50" height="50" relative="1" as="geometry">
            <mxPoint x="-3962" y="527" as="sourcePoint" />
            <mxPoint x="-3763" y="364" as="targetPoint" />
          </mxGeometry>
        </mxCell>
        <mxCell id="b_SJug2i7i0UwpOHzamp-59" value="recv(&lt;div&gt;::ffff:192.168.1.1&lt;/div&gt;&lt;div&gt;, hello)&lt;/div&gt;" style="endArrow=classic;html=1;rounded=0;exitX=0.5;exitY=0;exitDx=0;exitDy=0;fillColor=#dae8fc;strokeColor=#6c8ebf;edgeStyle=orthogonalEdgeStyle;strokeWidth=3;" edge="1" parent="1" source="b_SJug2i7i0UwpOHzamp-55">
          <mxGeometry x="-0.0052" y="-50" width="50" height="50" relative="1" as="geometry">
            <mxPoint x="-3962" y="527" as="sourcePoint" />
            <mxPoint x="-3713" y="240" as="targetPoint" />
            <mxPoint y="1" as="offset" />
          </mxGeometry>
        </mxCell>
        <mxCell id="b_SJug2i7i0UwpOHzamp-61" value="Connect(&lt;div&gt;&quot;192.168.2.1&quot;&lt;/div&gt;&lt;div&gt;, 8080)&lt;/div&gt;" style="endArrow=classic;html=1;rounded=0;exitX=0.25;exitY=1;exitDx=0;exitDy=0;entryX=0.219;entryY=-0.189;entryDx=0;entryDy=0;entryPerimeter=0;" edge="1" parent="1" source="b_SJug2i7i0UwpOHzamp-62" target="b_SJug2i7i0UwpOHzamp-47">
          <mxGeometry width="50" height="50" relative="1" as="geometry">
            <mxPoint x="-4079" y="266" as="sourcePoint" />
            <mxPoint x="-4124" y="370" as="targetPoint" />
          </mxGeometry>
        </mxCell>
        <mxCell id="b_SJug2i7i0UwpOHzamp-62" value="APP&lt;div&gt;&lt;div style=&quot;&quot;&gt;&lt;span style=&quot;background-color: initial;&quot;&gt;IPv4-Only&lt;/span&gt;&lt;/div&gt;&lt;div data-sider-select-id=&quot;33506169-b03d-43fa-859e-f544d424c816&quot;&gt;&lt;br&gt;&lt;/div&gt;&lt;/div&gt;" style="rounded=1;whiteSpace=wrap;html=1;align=center;verticalAlign=middle;" vertex="1" parent="1">
          <mxGeometry x="-4214" y="180" width="220" height="66" as="geometry" />
        </mxCell>
        <mxCell id="b_SJug2i7i0UwpOHzamp-64" value="send(hello)" style="endArrow=classic;html=1;rounded=0;fillColor=#dae8fc;strokeColor=#6c8ebf;edgeStyle=orthogonalEdgeStyle;strokeWidth=3;entryX=0.75;entryY=0;entryDx=0;entryDy=0;" edge="1" parent="1" target="b_SJug2i7i0UwpOHzamp-47">
          <mxGeometry width="50" height="50" relative="1" as="geometry">
            <mxPoint x="-4054" y="250" as="sourcePoint" />
            <mxPoint x="-3644" y="475" as="targetPoint" />
          </mxGeometry>
        </mxCell>
        <mxCell id="b_SJug2i7i0UwpOHzamp-65" value="IPv4" style="endArrow=classic;html=1;rounded=0;exitX=0.5;exitY=1;exitDx=0;exitDy=0;fillColor=#dae8fc;strokeColor=#6c8ebf;edgeStyle=orthogonalEdgeStyle;strokeWidth=3;entryX=0;entryY=0.5;entryDx=0;entryDy=0;" edge="1" parent="1" source="b_SJug2i7i0UwpOHzamp-22" target="b_SJug2i7i0UwpOHzamp-4">
          <mxGeometry width="50" height="50" relative="1" as="geometry">
            <mxPoint x="-3903" y="527" as="sourcePoint" />
            <mxPoint x="-3644" y="475" as="targetPoint" />
          </mxGeometry>
        </mxCell>
        <mxCell id="b_SJug2i7i0UwpOHzamp-66" value="" style="group" vertex="1" connectable="0" parent="1">
          <mxGeometry x="-3947" y="502" width="80" height="30" as="geometry" />
        </mxCell>
        <mxCell id="b_SJug2i7i0UwpOHzamp-4" value="Router&amp;nbsp;&amp;nbsp;&lt;div style=&quot;font-size: 13px;&quot;&gt;IPv4|IPv6&lt;/div&gt;" style="rounded=0;whiteSpace=wrap;html=1;fontSize=13;verticalAlign=middle;align=right;fillColor=#dae8fc;strokeColor=none;" vertex="1" parent="b_SJug2i7i0UwpOHzamp-66">
          <mxGeometry width="80" height="30" as="geometry" />
        </mxCell>
        <mxCell id="b_SJug2i7i0UwpOHzamp-9" value="" style="sketch=0;points=[[0.5,0,0],[1,0.5,0],[0.5,1,0],[0,0.5,0],[0.145,0.145,0],[0.8555,0.145,0],[0.855,0.8555,0],[0.145,0.855,0]];verticalLabelPosition=bottom;html=1;verticalAlign=top;aspect=fixed;align=center;pointerEvents=1;shape=mxgraph.cisco19.rect;prIcon=router;fillColor=#dae8fc;strokeColor=#6c8ebf;" vertex="1" parent="b_SJug2i7i0UwpOHzamp-66">
          <mxGeometry x="5" y="5" width="20" height="20" as="geometry" />
        </mxCell>
        <mxCell id="b_SJug2i7i0UwpOHzamp-68" value="" style="group" vertex="1" connectable="0" parent="1">
          <mxGeometry x="-3998" y="70" width="120" height="50" as="geometry" />
        </mxCell>
        <mxCell id="b_SJug2i7i0UwpOHzamp-5" value="DNS&amp;nbsp; &amp;nbsp;&amp;nbsp;" style="rounded=1;whiteSpace=wrap;html=1;align=right;verticalAlign=middle;container=0;" vertex="1" parent="b_SJug2i7i0UwpOHzamp-68">
          <mxGeometry width="120" height="50" as="geometry" />
        </mxCell>
        <mxCell id="b_SJug2i7i0UwpOHzamp-17" value="A|4A" style="rounded=0;whiteSpace=wrap;html=1;fillColor=#dae8fc;strokeColor=none;" vertex="1" parent="b_SJug2i7i0UwpOHzamp-68">
          <mxGeometry x="30" y="10" width="30" height="10" as="geometry" />
        </mxCell>
        <mxCell id="b_SJug2i7i0UwpOHzamp-18" value="A" style="rounded=0;whiteSpace=wrap;html=1;" vertex="1" parent="b_SJug2i7i0UwpOHzamp-68">
          <mxGeometry x="30" y="30" width="30" height="10" as="geometry" />
        </mxCell>
        <mxCell id="b_SJug2i7i0UwpOHzamp-69" value="1" style="ellipse;whiteSpace=wrap;html=1;aspect=fixed;fontSize=10;strokeColor=none;fillColor=#4D4D4D;fontColor=#FFFFFF;" vertex="1" parent="1">
          <mxGeometry x="-3788" y="270" width="20" height="20" as="geometry" />
        </mxCell>
        <mxCell id="b_SJug2i7i0UwpOHzamp-71" value="4" style="ellipse;whiteSpace=wrap;html=1;aspect=fixed;fontSize=10;strokeColor=none;fillColor=#4D4D4D;fontColor=#FFFFFF;" vertex="1" parent="1">
          <mxGeometry x="-3658" y="270" width="20" height="20" as="geometry" />
        </mxCell>
        <mxCell id="b_SJug2i7i0UwpOHzamp-72" value="3" style="ellipse;whiteSpace=wrap;html=1;aspect=fixed;fontSize=10;strokeColor=none;fillColor=#4D4D4D;fontColor=#FFFFFF;" vertex="1" parent="1">
          <mxGeometry x="-4044" y="270" width="20" height="20" as="geometry" />
        </mxCell>
        <mxCell id="b_SJug2i7i0UwpOHzamp-73" value="2" style="ellipse;whiteSpace=wrap;html=1;aspect=fixed;fontSize=10;strokeColor=none;fillColor=#4D4D4D;fontColor=#FFFFFF;" vertex="1" parent="1">
          <mxGeometry x="-4199" y="270" width="20" height="20" as="geometry" />
        </mxCell>
        <mxCell id="b_SJug2i7i0UwpOHzamp-19" value="192.168.2.1" style="endArrow=classic;html=1;rounded=0;exitX=0;exitY=0.5;exitDx=0;exitDy=0;dashed=1;edgeStyle=orthogonalEdgeStyle;entryX=0.456;entryY=-0.041;entryDx=0;entryDy=0;entryPerimeter=0;" edge="1" parent="1" source="b_SJug2i7i0UwpOHzamp-18" target="b_SJug2i7i0UwpOHzamp-62">
          <mxGeometry width="50" height="50" relative="1" as="geometry">
            <mxPoint x="-4155.5" y="160" as="sourcePoint" />
            <mxPoint x="-4075.5" y="136" as="targetPoint" />
          </mxGeometry>
        </mxCell>
        <mxCell id="b_SJug2i7i0UwpOHzamp-80" value="" style="rounded=0;whiteSpace=wrap;html=1;gradientColor=default;fillColor=none;strokeColor=#0d4cde;strokeWidth=1;" vertex="1" parent="1">
          <mxGeometry x="-3708" y="290" width="96" height="20" as="geometry" />
        </mxCell>
        <mxCell id="b_SJug2i7i0UwpOHzamp-82" value="To Dual-Stack -- Client APP" style="rounded=0;whiteSpace=wrap;html=1;align=left;fontSize=14;strokeColor=none;labelBorderColor=none;fontStyle=1;fillColor=none;" vertex="1" parent="1">
          <mxGeometry x="-4232" y="630" width="245" height="40" as="geometry" />
        </mxCell>
        <mxCell id="b_SJug2i7i0UwpOHzamp-83" value="Host Node" style="whiteSpace=wrap;html=1;rounded=1;fillColor=#dae8fc;strokeColor=none;verticalAlign=bottom;align=right;" vertex="1" parent="1">
          <mxGeometry x="-4223" y="932" width="220" height="145" as="geometry" />
        </mxCell>
        <mxCell id="b_SJug2i7i0UwpOHzamp-84" value="" style="group" vertex="1" connectable="0" parent="1">
          <mxGeometry x="-4213" y="950" width="210" height="120" as="geometry" />
        </mxCell>
        <mxCell id="b_SJug2i7i0UwpOHzamp-85" value="&lt;div style=&quot;&quot;&gt;&lt;span style=&quot;background-color: initial;&quot;&gt;NIC&amp;nbsp;&lt;/span&gt;&lt;/div&gt;" style="rounded=1;whiteSpace=wrap;html=1;fontSize=10;strokeWidth=1;strokeColor=none;fillColor=#fff2cc;align=center;" vertex="1" parent="b_SJug2i7i0UwpOHzamp-84">
          <mxGeometry y="85" width="200" height="20" as="geometry" />
        </mxCell>
        <mxCell id="b_SJug2i7i0UwpOHzamp-86" value="IPv6&lt;div&gt;&lt;div&gt;2001:db8:abcd:0012::1/64&lt;/div&gt;&lt;/div&gt;" style="rounded=1;whiteSpace=wrap;html=1;fontSize=10;strokeWidth=1;strokeColor=none;fillColor=#f8cecc;fontStyle=1" vertex="1" parent="b_SJug2i7i0UwpOHzamp-84">
          <mxGeometry x="80" y="26" width="120" height="27.5" as="geometry" />
        </mxCell>
        <mxCell id="b_SJug2i7i0UwpOHzamp-87" value="Data Link Layer" style="rounded=1;whiteSpace=wrap;html=1;fontSize=10;strokeWidth=1;strokeColor=none;fillColor=#fff2cc;align=center;" vertex="1" parent="b_SJug2i7i0UwpOHzamp-84">
          <mxGeometry y="59" width="200" height="20" as="geometry" />
        </mxCell>
        <mxCell id="b_SJug2i7i0UwpOHzamp-88" value="IPv4&lt;div&gt;192.168.1.1/24&lt;/div&gt;" style="rounded=1;whiteSpace=wrap;html=1;fontSize=10;strokeWidth=1;strokeColor=none;fillColor=#f8cecc;fontStyle=1" vertex="1" parent="b_SJug2i7i0UwpOHzamp-84">
          <mxGeometry y="25" width="70" height="29.5" as="geometry" />
        </mxCell>
        <mxCell id="b_SJug2i7i0UwpOHzamp-89" value="TCP/UDP" style="rounded=1;whiteSpace=wrap;html=1;fontSize=10;strokeWidth=1;strokeColor=none;fillColor=#fff2cc;align=center;" vertex="1" parent="b_SJug2i7i0UwpOHzamp-84">
          <mxGeometry width="200" height="20" as="geometry" />
        </mxCell>
        <mxCell id="b_SJug2i7i0UwpOHzamp-90" value="" style="curved=1;endArrow=classic;html=1;rounded=0;strokeWidth=3;exitX=0.5;exitY=1;exitDx=0;exitDy=0;strokeColor=#6c8ebf;entryX=0.5;entryY=0;entryDx=0;entryDy=0;" edge="1" parent="b_SJug2i7i0UwpOHzamp-84" source="b_SJug2i7i0UwpOHzamp-89" target="b_SJug2i7i0UwpOHzamp-85">
          <mxGeometry width="50" height="50" relative="1" as="geometry">
            <mxPoint x="275" y="75" as="sourcePoint" />
            <mxPoint x="275" y="10" as="targetPoint" />
            <Array as="points">
              <mxPoint x="161" y="20" />
              <mxPoint x="161" y="30" />
              <mxPoint x="161" y="50" />
              <mxPoint x="151" y="60" />
              <mxPoint x="151" y="70" />
              <mxPoint x="151" y="80" />
            </Array>
          </mxGeometry>
        </mxCell>
        <mxCell id="b_SJug2i7i0UwpOHzamp-91" value="Host Node" style="whiteSpace=wrap;html=1;rounded=1;fillColor=#dae8fc;strokeColor=none;verticalAlign=bottom;align=right;" vertex="1" parent="1">
          <mxGeometry x="-3832" y="930.5" width="220" height="145" as="geometry" />
        </mxCell>
        <mxCell id="b_SJug2i7i0UwpOHzamp-92" value="" style="group" vertex="1" connectable="0" parent="1">
          <mxGeometry x="-3822" y="949.5" width="210" height="120" as="geometry" />
        </mxCell>
        <mxCell id="b_SJug2i7i0UwpOHzamp-93" value="&lt;div style=&quot;&quot;&gt;&lt;span style=&quot;background-color: initial;&quot;&gt;NIC&amp;nbsp;&lt;/span&gt;&lt;/div&gt;" style="rounded=1;whiteSpace=wrap;html=1;fontSize=10;strokeWidth=1;strokeColor=none;fillColor=#fff2cc;align=center;" vertex="1" parent="b_SJug2i7i0UwpOHzamp-92">
          <mxGeometry y="85" width="200" height="20" as="geometry" />
        </mxCell>
        <mxCell id="b_SJug2i7i0UwpOHzamp-128" value="" style="edgeStyle=orthogonalEdgeStyle;rounded=0;orthogonalLoop=1;jettySize=auto;html=1;" edge="1" parent="b_SJug2i7i0UwpOHzamp-92" source="b_SJug2i7i0UwpOHzamp-94" target="b_SJug2i7i0UwpOHzamp-97">
          <mxGeometry relative="1" as="geometry" />
        </mxCell>
        <mxCell id="b_SJug2i7i0UwpOHzamp-94" value="IPv6&lt;div&gt;&lt;div&gt;2001:db8:abcd:0013::1/64&lt;/div&gt;&lt;/div&gt;" style="rounded=1;whiteSpace=wrap;html=1;fontSize=10;strokeWidth=1;strokeColor=none;fillColor=#f8cecc;fontStyle=1" vertex="1" parent="b_SJug2i7i0UwpOHzamp-92">
          <mxGeometry x="80" y="26" width="120" height="27.5" as="geometry" />
        </mxCell>
        <mxCell id="b_SJug2i7i0UwpOHzamp-95" value="Data Link Layer" style="rounded=1;whiteSpace=wrap;html=1;fontSize=10;strokeWidth=1;strokeColor=none;fillColor=#fff2cc;align=center;" vertex="1" parent="b_SJug2i7i0UwpOHzamp-92">
          <mxGeometry y="59" width="200" height="20" as="geometry" />
        </mxCell>
        <mxCell id="b_SJug2i7i0UwpOHzamp-96" value="IPv4&lt;div&gt;192.168.2.1/24&lt;/div&gt;" style="rounded=1;whiteSpace=wrap;html=1;fontSize=10;strokeWidth=1;strokeColor=none;fillColor=#f8cecc;fontStyle=1" vertex="1" parent="b_SJug2i7i0UwpOHzamp-92">
          <mxGeometry y="25" width="70" height="29.5" as="geometry" />
        </mxCell>
        <mxCell id="b_SJug2i7i0UwpOHzamp-97" value="TCP/UDP" style="rounded=1;whiteSpace=wrap;html=1;fontSize=10;strokeWidth=1;strokeColor=none;fillColor=#fff2cc;align=center;" vertex="1" parent="b_SJug2i7i0UwpOHzamp-92">
          <mxGeometry width="200" height="20" as="geometry" />
        </mxCell>
        <mxCell id="b_SJug2i7i0UwpOHzamp-98" value="" style="curved=1;endArrow=classic;html=1;rounded=0;strokeWidth=3;exitX=0.5;exitY=0;exitDx=0;exitDy=0;entryX=0.5;entryY=1;entryDx=0;entryDy=0;strokeColor=#6c8ebf;" edge="1" parent="b_SJug2i7i0UwpOHzamp-92" source="b_SJug2i7i0UwpOHzamp-93" target="b_SJug2i7i0UwpOHzamp-97">
          <mxGeometry width="50" height="50" relative="1" as="geometry">
            <mxPoint x="90" y="100.5" as="sourcePoint" />
            <mxPoint x="140" y="50.5" as="targetPoint" />
            <Array as="points">
              <mxPoint x="95" y="60.5" />
              <mxPoint x="190" y="60.5" />
              <mxPoint x="180" y="30.5" />
              <mxPoint x="160" y="20.5" />
            </Array>
          </mxGeometry>
        </mxCell>
        <mxCell id="b_SJug2i7i0UwpOHzamp-99" value="IPv4" style="endArrow=classic;html=1;rounded=0;exitX=1;exitY=0.5;exitDx=0;exitDy=0;fillColor=#dae8fc;strokeColor=#6c8ebf;edgeStyle=orthogonalEdgeStyle;strokeWidth=3;entryX=0.5;entryY=1;entryDx=0;entryDy=0;" edge="1" parent="1" source="b_SJug2i7i0UwpOHzamp-109" target="b_SJug2i7i0UwpOHzamp-93">
          <mxGeometry width="50" height="50" relative="1" as="geometry">
            <mxPoint x="-3852" y="1064" as="sourcePoint" />
            <mxPoint x="-3717" y="1062" as="targetPoint" />
          </mxGeometry>
        </mxCell>
        <mxCell id="b_SJug2i7i0UwpOHzamp-100" value="APP&lt;div&gt;&lt;div style=&quot;&quot;&gt;&lt;span style=&quot;background-color: initial;&quot;&gt;IPv6-Only&lt;/span&gt;&lt;/div&gt;&lt;div data-sider-select-id=&quot;33506169-b03d-43fa-859e-f544d424c816&quot;&gt;&lt;br&gt;&lt;/div&gt;&lt;/div&gt;" style="rounded=1;whiteSpace=wrap;html=1;fillColor=#dae8fc;strokeColor=none;align=center;verticalAlign=middle;" vertex="1" parent="1">
          <mxGeometry x="-3827" y="770" width="220" height="66" as="geometry" />
        </mxCell>
        <mxCell id="b_SJug2i7i0UwpOHzamp-101" value="&lt;div&gt;&amp;nbsp; // 获取服务器地址信息&lt;/div&gt;&lt;div&gt;&amp;nbsp; &amp;nbsp; struct addrinfo hints, *res;&lt;/div&gt;&lt;div&gt;&lt;span style=&quot;background-color: initial;&quot;&gt;&amp;nbsp; &amp;nbsp; char *server = argv[1];&lt;/span&gt;&lt;br&gt;&lt;/div&gt;&lt;div&gt;&amp;nbsp; &amp;nbsp; char *port = argc &amp;gt;= 3 ? argv[2] : DEFAULT_PORT;&lt;/div&gt;&lt;div&gt;&lt;span style=&quot;background-color: initial;&quot;&gt;&amp;nbsp; &amp;nbsp;&amp;nbsp;&lt;/span&gt;&lt;span style=&quot;background-color: initial;&quot;&gt;getaddrinfo(server, port, &amp;amp;hints, &amp;amp;res));&lt;/span&gt;&lt;/div&gt;&lt;div&gt;&lt;br&gt;&lt;/div&gt;&lt;div&gt;&amp;nbsp;&amp;nbsp;&lt;span style=&quot;background-color: initial;&quot;&gt;&amp;nbsp; // 创建套接字&lt;/span&gt;&lt;span style=&quot;background-color: initial;&quot;&gt;&amp;nbsp;&lt;/span&gt;&lt;/div&gt;&lt;div&gt;&amp;nbsp; &amp;nbsp; int sockfd;&lt;/div&gt;&lt;div&gt;&amp;nbsp; &amp;nbsp; sockfd = &lt;b&gt;socket(res-&amp;gt;ai_family, res-&amp;gt;ai_socktype, res-&amp;gt;ai_protocol)&lt;/b&gt;;&lt;/div&gt;&lt;div&gt;&amp;nbsp; &amp;nbsp;&amp;nbsp;&lt;/div&gt;&lt;div&gt;&amp;nbsp; &amp;nbsp; // 连接到服务器&lt;/div&gt;&lt;div&gt;&amp;nbsp; &amp;nbsp; connect(sockfd, res-&amp;gt;ai_addr, res-&amp;gt;ai_addrlen) &amp;lt; 0) ;&lt;/div&gt;&lt;div&gt;&lt;br&gt;&lt;/div&gt;" style="text;whiteSpace=wrap;html=1;fontSize=8;" vertex="1" parent="1">
          <mxGeometry x="-4002" y="770" width="151" height="180" as="geometry" />
        </mxCell>
        <mxCell id="b_SJug2i7i0UwpOHzamp-102" value="bind(&quot;::&quot;)" style="endArrow=classic;html=1;rounded=0;exitX=0.25;exitY=1;exitDx=0;exitDy=0;fillColor=#dae8fc;strokeColor=#6c8ebf;edgeStyle=orthogonalEdgeStyle;strokeWidth=1;" edge="1" parent="1" source="b_SJug2i7i0UwpOHzamp-100">
          <mxGeometry width="50" height="50" relative="1" as="geometry">
            <mxPoint x="-3971" y="1117" as="sourcePoint" />
            <mxPoint x="-3772" y="954" as="targetPoint" />
          </mxGeometry>
        </mxCell>
        <mxCell id="b_SJug2i7i0UwpOHzamp-103" value="recv(&lt;br&gt;&lt;div&gt;&lt;span style=&quot;background-color: rgb(251, 251, 251); font-size: 10px; font-weight: 700; text-wrap: wrap;&quot;&gt;2001:db8:abcd:0012::1&lt;/span&gt;&lt;/div&gt;&lt;div&gt;, hello)&lt;/div&gt;" style="endArrow=classic;html=1;rounded=0;exitX=0.5;exitY=0;exitDx=0;exitDy=0;fillColor=#dae8fc;strokeColor=#6c8ebf;edgeStyle=orthogonalEdgeStyle;strokeWidth=3;" edge="1" parent="1" source="b_SJug2i7i0UwpOHzamp-97">
          <mxGeometry x="-0.0052" y="-50" width="50" height="50" relative="1" as="geometry">
            <mxPoint x="-3971" y="1117" as="sourcePoint" />
            <mxPoint x="-3722" y="830" as="targetPoint" />
            <mxPoint y="1" as="offset" />
          </mxGeometry>
        </mxCell>
        <mxCell id="b_SJug2i7i0UwpOHzamp-104" value="Connect(&lt;div&gt;&lt;span style=&quot;background-color: rgb(251, 251, 251); font-size: 10px; font-weight: 700; text-wrap: wrap;&quot;&gt;2001:db8:abcd:0013::1&lt;/span&gt;&lt;/div&gt;&lt;div&gt;, 8080)&lt;/div&gt;" style="endArrow=classic;html=1;rounded=0;exitX=0.25;exitY=1;exitDx=0;exitDy=0;entryX=0.219;entryY=-0.189;entryDx=0;entryDy=0;entryPerimeter=0;" edge="1" parent="1" source="b_SJug2i7i0UwpOHzamp-105" target="b_SJug2i7i0UwpOHzamp-89">
          <mxGeometry width="50" height="50" relative="1" as="geometry">
            <mxPoint x="-4088" y="856" as="sourcePoint" />
            <mxPoint x="-4133" y="960" as="targetPoint" />
          </mxGeometry>
        </mxCell>
        <mxCell id="b_SJug2i7i0UwpOHzamp-105" value="APP&lt;div&gt;&lt;div style=&quot;&quot;&gt;&lt;span style=&quot;background-color: initial;&quot;&gt;IPv4|IPv6&lt;/span&gt;&lt;/div&gt;&lt;div data-sider-select-id=&quot;33506169-b03d-43fa-859e-f544d424c816&quot;&gt;&lt;br&gt;&lt;/div&gt;&lt;/div&gt;" style="rounded=1;whiteSpace=wrap;html=1;align=center;verticalAlign=middle;fillColor=#dae8fc;strokeColor=none;" vertex="1" parent="1">
          <mxGeometry x="-4223" y="770" width="220" height="66" as="geometry" />
        </mxCell>
        <mxCell id="b_SJug2i7i0UwpOHzamp-106" value="send(hello)" style="endArrow=classic;html=1;rounded=0;fillColor=#dae8fc;strokeColor=#6c8ebf;edgeStyle=orthogonalEdgeStyle;strokeWidth=3;entryX=0.75;entryY=0;entryDx=0;entryDy=0;" edge="1" parent="1" target="b_SJug2i7i0UwpOHzamp-89">
          <mxGeometry width="50" height="50" relative="1" as="geometry">
            <mxPoint x="-4063" y="840" as="sourcePoint" />
            <mxPoint x="-3653" y="1065" as="targetPoint" />
          </mxGeometry>
        </mxCell>
        <mxCell id="b_SJug2i7i0UwpOHzamp-107" value="IPv6" style="endArrow=classic;html=1;rounded=0;exitX=0.5;exitY=1;exitDx=0;exitDy=0;fillColor=#dae8fc;strokeColor=#6c8ebf;edgeStyle=orthogonalEdgeStyle;strokeWidth=3;entryX=0;entryY=0.5;entryDx=0;entryDy=0;" edge="1" parent="1" source="b_SJug2i7i0UwpOHzamp-85" target="b_SJug2i7i0UwpOHzamp-109">
          <mxGeometry width="50" height="50" relative="1" as="geometry">
            <mxPoint x="-3912" y="1117" as="sourcePoint" />
            <mxPoint x="-3653" y="1065" as="targetPoint" />
          </mxGeometry>
        </mxCell>
        <mxCell id="b_SJug2i7i0UwpOHzamp-108" value="" style="group" vertex="1" connectable="0" parent="1">
          <mxGeometry x="-3956" y="1092" width="80" height="30" as="geometry" />
        </mxCell>
        <mxCell id="b_SJug2i7i0UwpOHzamp-109" value="Router&amp;nbsp;&amp;nbsp;&lt;div style=&quot;font-size: 13px;&quot;&gt;IPv4|IPv6&lt;/div&gt;" style="rounded=0;whiteSpace=wrap;html=1;fontSize=13;verticalAlign=middle;align=right;fillColor=#dae8fc;strokeColor=none;" vertex="1" parent="b_SJug2i7i0UwpOHzamp-108">
          <mxGeometry width="80" height="30" as="geometry" />
        </mxCell>
        <mxCell id="b_SJug2i7i0UwpOHzamp-110" value="" style="sketch=0;points=[[0.5,0,0],[1,0.5,0],[0.5,1,0],[0,0.5,0],[0.145,0.145,0],[0.8555,0.145,0],[0.855,0.8555,0],[0.145,0.855,0]];verticalLabelPosition=bottom;html=1;verticalAlign=top;aspect=fixed;align=center;pointerEvents=1;shape=mxgraph.cisco19.rect;prIcon=router;fillColor=#dae8fc;strokeColor=#6c8ebf;" vertex="1" parent="b_SJug2i7i0UwpOHzamp-108">
          <mxGeometry x="5" y="5" width="20" height="20" as="geometry" />
        </mxCell>
        <mxCell id="b_SJug2i7i0UwpOHzamp-111" value="" style="group" vertex="1" connectable="0" parent="1">
          <mxGeometry x="-4007" y="660" width="120" height="50" as="geometry" />
        </mxCell>
        <mxCell id="b_SJug2i7i0UwpOHzamp-112" value="DNS&amp;nbsp; &amp;nbsp;&amp;nbsp;" style="rounded=1;whiteSpace=wrap;html=1;align=right;verticalAlign=middle;container=0;" vertex="1" parent="b_SJug2i7i0UwpOHzamp-111">
          <mxGeometry width="120" height="50" as="geometry" />
        </mxCell>
        <mxCell id="b_SJug2i7i0UwpOHzamp-113" value="A|4A" style="rounded=0;whiteSpace=wrap;html=1;fillColor=#dae8fc;strokeColor=none;" vertex="1" parent="b_SJug2i7i0UwpOHzamp-111">
          <mxGeometry x="30" y="10" width="30" height="10" as="geometry" />
        </mxCell>
        <mxCell id="b_SJug2i7i0UwpOHzamp-114" value="A" style="rounded=0;whiteSpace=wrap;html=1;" vertex="1" parent="b_SJug2i7i0UwpOHzamp-111">
          <mxGeometry x="30" y="30" width="30" height="10" as="geometry" />
        </mxCell>
        <mxCell id="b_SJug2i7i0UwpOHzamp-115" value="1" style="ellipse;whiteSpace=wrap;html=1;aspect=fixed;fontSize=10;strokeColor=none;fillColor=#4D4D4D;fontColor=#FFFFFF;" vertex="1" parent="1">
          <mxGeometry x="-3797" y="860" width="20" height="20" as="geometry" />
        </mxCell>
        <mxCell id="b_SJug2i7i0UwpOHzamp-116" value="4" style="ellipse;whiteSpace=wrap;html=1;aspect=fixed;fontSize=10;strokeColor=none;fillColor=#4D4D4D;fontColor=#FFFFFF;" vertex="1" parent="1">
          <mxGeometry x="-3667" y="860" width="20" height="20" as="geometry" />
        </mxCell>
        <mxCell id="b_SJug2i7i0UwpOHzamp-117" value="3" style="ellipse;whiteSpace=wrap;html=1;aspect=fixed;fontSize=10;strokeColor=none;fillColor=#4D4D4D;fontColor=#FFFFFF;" vertex="1" parent="1">
          <mxGeometry x="-4053" y="860" width="20" height="20" as="geometry" />
        </mxCell>
        <mxCell id="b_SJug2i7i0UwpOHzamp-118" value="2" style="ellipse;whiteSpace=wrap;html=1;aspect=fixed;fontSize=10;strokeColor=none;fillColor=#4D4D4D;fontColor=#FFFFFF;" vertex="1" parent="1">
          <mxGeometry x="-4208" y="860" width="20" height="20" as="geometry" />
        </mxCell>
        <mxCell id="b_SJug2i7i0UwpOHzamp-119" value="&lt;span style=&quot;font-size: 10px; font-weight: 700; text-wrap: wrap; background-color: rgb(251, 251, 251);&quot;&gt;2001:db8:abcd:0013::1&lt;/span&gt;" style="endArrow=classic;html=1;rounded=0;exitX=0;exitY=0.5;exitDx=0;exitDy=0;dashed=1;edgeStyle=orthogonalEdgeStyle;entryX=0.456;entryY=-0.041;entryDx=0;entryDy=0;entryPerimeter=0;" edge="1" parent="1" source="b_SJug2i7i0UwpOHzamp-113" target="b_SJug2i7i0UwpOHzamp-105">
          <mxGeometry width="50" height="50" relative="1" as="geometry">
            <mxPoint x="-4164.5" y="750" as="sourcePoint" />
            <mxPoint x="-4084.5" y="726" as="targetPoint" />
          </mxGeometry>
        </mxCell>
        <mxCell id="b_SJug2i7i0UwpOHzamp-122" value="" style="rounded=0;whiteSpace=wrap;html=1;gradientColor=default;fillColor=none;strokeColor=#0d4cde;strokeWidth=1;" vertex="1" parent="1">
          <mxGeometry x="-4208" y="290" width="96" height="20" as="geometry" />
        </mxCell>
        <mxCell id="b_SJug2i7i0UwpOHzamp-123" value="" style="rounded=0;whiteSpace=wrap;html=1;gradientColor=default;fillColor=none;strokeColor=#0d4cde;strokeWidth=1;" vertex="1" parent="1">
          <mxGeometry x="-4232" y="880" width="120" height="20" as="geometry" />
        </mxCell>
        <mxCell id="b_SJug2i7i0UwpOHzamp-125" value="" style="rounded=0;whiteSpace=wrap;html=1;gradientColor=default;fillColor=none;strokeColor=#0d4cde;strokeWidth=1;" vertex="1" parent="1">
          <mxGeometry x="-3732" y="880" width="120" height="20" as="geometry" />
        </mxCell>
        <mxCell id="b_SJug2i7i0UwpOHzamp-129" value="Nodes to Dual-Stack -- v4-v4" style="rounded=0;whiteSpace=wrap;html=1;align=left;fontSize=14;strokeColor=none;labelBorderColor=none;fontStyle=1;fillColor=none;" vertex="1" parent="1">
          <mxGeometry x="-4237" y="-560" width="245" height="40" as="geometry" />
        </mxCell>
        <mxCell id="b_SJug2i7i0UwpOHzamp-130" value="Host Node" style="whiteSpace=wrap;html=1;rounded=1;fillColor=#dae8fc;strokeColor=none;verticalAlign=bottom;align=right;" vertex="1" parent="1">
          <mxGeometry x="-4228" y="-258" width="220" height="145" as="geometry" />
        </mxCell>
        <mxCell id="b_SJug2i7i0UwpOHzamp-131" value="" style="group" vertex="1" connectable="0" parent="1">
          <mxGeometry x="-4218" y="-240" width="210" height="120" as="geometry" />
        </mxCell>
        <mxCell id="b_SJug2i7i0UwpOHzamp-132" value="&lt;div style=&quot;&quot;&gt;&lt;span style=&quot;background-color: initial;&quot;&gt;NIC&amp;nbsp;&lt;/span&gt;&lt;/div&gt;" style="rounded=1;whiteSpace=wrap;html=1;fontSize=10;strokeWidth=1;strokeColor=none;fillColor=#fff2cc;align=center;" vertex="1" parent="b_SJug2i7i0UwpOHzamp-131">
          <mxGeometry y="85" width="200" height="20" as="geometry" />
        </mxCell>
        <mxCell id="b_SJug2i7i0UwpOHzamp-133" value="IPv6&lt;div&gt;&lt;div&gt;2001:db8:abcd:0012::1/64&lt;/div&gt;&lt;/div&gt;" style="rounded=1;whiteSpace=wrap;html=1;fontSize=10;strokeWidth=1;strokeColor=none;fillColor=#f8cecc;fontStyle=1" vertex="1" parent="b_SJug2i7i0UwpOHzamp-131">
          <mxGeometry x="80" y="26" width="120" height="27.5" as="geometry" />
        </mxCell>
        <mxCell id="b_SJug2i7i0UwpOHzamp-134" value="Data Link Layer" style="rounded=1;whiteSpace=wrap;html=1;fontSize=10;strokeWidth=1;strokeColor=none;fillColor=#fff2cc;align=center;" vertex="1" parent="b_SJug2i7i0UwpOHzamp-131">
          <mxGeometry y="59" width="200" height="20" as="geometry" />
        </mxCell>
        <mxCell id="b_SJug2i7i0UwpOHzamp-135" value="IPv4&lt;div&gt;192.168.1.1/24&lt;/div&gt;" style="rounded=1;whiteSpace=wrap;html=1;fontSize=10;strokeWidth=1;strokeColor=none;fillColor=#f8cecc;fontStyle=1" vertex="1" parent="b_SJug2i7i0UwpOHzamp-131">
          <mxGeometry y="25" width="70" height="29.5" as="geometry" />
        </mxCell>
        <mxCell id="b_SJug2i7i0UwpOHzamp-136" value="TCP/UDP" style="rounded=1;whiteSpace=wrap;html=1;fontSize=10;strokeWidth=1;strokeColor=none;fillColor=#fff2cc;align=center;" vertex="1" parent="b_SJug2i7i0UwpOHzamp-131">
          <mxGeometry width="200" height="20" as="geometry" />
        </mxCell>
        <mxCell id="b_SJug2i7i0UwpOHzamp-137" value="" style="curved=1;endArrow=classic;html=1;rounded=0;strokeWidth=3;exitX=0.5;exitY=1;exitDx=0;exitDy=0;strokeColor=#6c8ebf;entryX=0.5;entryY=0;entryDx=0;entryDy=0;" edge="1" parent="b_SJug2i7i0UwpOHzamp-131" source="b_SJug2i7i0UwpOHzamp-136" target="b_SJug2i7i0UwpOHzamp-132">
          <mxGeometry width="50" height="50" relative="1" as="geometry">
            <mxPoint x="275" y="75" as="sourcePoint" />
            <mxPoint x="275" y="10" as="targetPoint" />
            <Array as="points">
              <mxPoint x="45" y="30" />
              <mxPoint x="25" y="40" />
              <mxPoint x="25" y="60" />
              <mxPoint x="45" y="70" />
              <mxPoint x="85" y="60" />
            </Array>
          </mxGeometry>
        </mxCell>
        <mxCell id="b_SJug2i7i0UwpOHzamp-138" value="Host Node" style="whiteSpace=wrap;html=1;rounded=1;fillColor=#dae8fc;strokeColor=none;verticalAlign=bottom;align=right;" vertex="1" parent="1">
          <mxGeometry x="-3837" y="-259.5" width="220" height="145" as="geometry" />
        </mxCell>
        <mxCell id="b_SJug2i7i0UwpOHzamp-139" value="" style="group" vertex="1" connectable="0" parent="1">
          <mxGeometry x="-3827" y="-240.5" width="210" height="120" as="geometry" />
        </mxCell>
        <mxCell id="b_SJug2i7i0UwpOHzamp-140" value="&lt;div style=&quot;&quot;&gt;&lt;span style=&quot;background-color: initial;&quot;&gt;NIC&amp;nbsp;&lt;/span&gt;&lt;/div&gt;" style="rounded=1;whiteSpace=wrap;html=1;fontSize=10;strokeWidth=1;strokeColor=none;fillColor=#fff2cc;align=center;" vertex="1" parent="b_SJug2i7i0UwpOHzamp-139">
          <mxGeometry y="85" width="200" height="20" as="geometry" />
        </mxCell>
        <mxCell id="b_SJug2i7i0UwpOHzamp-141" value="IPv6&lt;div&gt;&lt;div&gt;2001:db8:abcd:0013::1/64&lt;/div&gt;&lt;/div&gt;" style="rounded=1;whiteSpace=wrap;html=1;fontSize=10;strokeWidth=1;strokeColor=none;fillColor=#f8cecc;fontStyle=1" vertex="1" parent="b_SJug2i7i0UwpOHzamp-139">
          <mxGeometry x="80" y="26" width="120" height="27.5" as="geometry" />
        </mxCell>
        <mxCell id="b_SJug2i7i0UwpOHzamp-142" value="Data Link Layer" style="rounded=1;whiteSpace=wrap;html=1;fontSize=10;strokeWidth=1;strokeColor=none;fillColor=#fff2cc;align=center;" vertex="1" parent="b_SJug2i7i0UwpOHzamp-139">
          <mxGeometry y="59" width="200" height="20" as="geometry" />
        </mxCell>
        <mxCell id="b_SJug2i7i0UwpOHzamp-143" value="IPv4&lt;div&gt;192.168.2.1/24&lt;/div&gt;" style="rounded=1;whiteSpace=wrap;html=1;fontSize=10;strokeWidth=1;strokeColor=none;fillColor=#f8cecc;fontStyle=1" vertex="1" parent="b_SJug2i7i0UwpOHzamp-139">
          <mxGeometry y="25" width="70" height="29.5" as="geometry" />
        </mxCell>
        <mxCell id="b_SJug2i7i0UwpOHzamp-144" value="TCP/UDP" style="rounded=1;whiteSpace=wrap;html=1;fontSize=10;strokeWidth=1;strokeColor=none;fillColor=#fff2cc;align=center;" vertex="1" parent="b_SJug2i7i0UwpOHzamp-139">
          <mxGeometry width="200" height="20" as="geometry" />
        </mxCell>
        <mxCell id="b_SJug2i7i0UwpOHzamp-145" value="" style="curved=1;endArrow=classic;html=1;rounded=0;strokeWidth=3;exitX=0.5;exitY=0;exitDx=0;exitDy=0;entryX=0.5;entryY=1;entryDx=0;entryDy=0;strokeColor=#6c8ebf;" edge="1" parent="b_SJug2i7i0UwpOHzamp-139" source="b_SJug2i7i0UwpOHzamp-140" target="b_SJug2i7i0UwpOHzamp-144">
          <mxGeometry width="50" height="50" relative="1" as="geometry">
            <mxPoint x="90" y="100.5" as="sourcePoint" />
            <mxPoint x="140" y="50.5" as="targetPoint" />
            <Array as="points">
              <mxPoint x="95" y="60.5" />
              <mxPoint x="40" y="80.5" />
              <mxPoint x="20" y="30.5" />
              <mxPoint x="65" y="40.5" />
            </Array>
          </mxGeometry>
        </mxCell>
        <mxCell id="b_SJug2i7i0UwpOHzamp-146" value="IPv4" style="endArrow=classic;html=1;rounded=0;exitX=1;exitY=0.5;exitDx=0;exitDy=0;fillColor=#dae8fc;strokeColor=#6c8ebf;edgeStyle=orthogonalEdgeStyle;strokeWidth=3;entryX=0.5;entryY=1;entryDx=0;entryDy=0;" edge="1" parent="1" source="b_SJug2i7i0UwpOHzamp-155" target="b_SJug2i7i0UwpOHzamp-140">
          <mxGeometry width="50" height="50" relative="1" as="geometry">
            <mxPoint x="-3857" y="-126" as="sourcePoint" />
            <mxPoint x="-3722" y="-128" as="targetPoint" />
          </mxGeometry>
        </mxCell>
        <mxCell id="b_SJug2i7i0UwpOHzamp-147" value="APP&lt;div&gt;&lt;div style=&quot;&quot;&gt;&lt;span style=&quot;background-color: initial;&quot;&gt;IPv4-Only&lt;/span&gt;&lt;/div&gt;&lt;div data-sider-select-id=&quot;33506169-b03d-43fa-859e-f544d424c816&quot;&gt;&lt;br&gt;&lt;/div&gt;&lt;/div&gt;" style="rounded=1;whiteSpace=wrap;html=1;align=center;verticalAlign=middle;" vertex="1" parent="1">
          <mxGeometry x="-3832" y="-420" width="220" height="66" as="geometry" />
        </mxCell>
        <mxCell id="b_SJug2i7i0UwpOHzamp-148" value="bind(&quot;0.0.0.0&quot;)" style="endArrow=classic;html=1;rounded=0;exitX=0.25;exitY=1;exitDx=0;exitDy=0;fillColor=#dae8fc;strokeColor=#6c8ebf;edgeStyle=orthogonalEdgeStyle;strokeWidth=1;" edge="1" parent="1" source="b_SJug2i7i0UwpOHzamp-147">
          <mxGeometry width="50" height="50" relative="1" as="geometry">
            <mxPoint x="-3976" y="-73" as="sourcePoint" />
            <mxPoint x="-3777" y="-236" as="targetPoint" />
          </mxGeometry>
        </mxCell>
        <mxCell id="b_SJug2i7i0UwpOHzamp-149" value="recv(&lt;div&gt;192.168.1.1&lt;br&gt;&lt;div&gt;, hello)&lt;/div&gt;&lt;/div&gt;" style="endArrow=classic;html=1;rounded=0;exitX=0.5;exitY=0;exitDx=0;exitDy=0;fillColor=#dae8fc;strokeColor=#6c8ebf;edgeStyle=orthogonalEdgeStyle;strokeWidth=3;" edge="1" parent="1" source="b_SJug2i7i0UwpOHzamp-144">
          <mxGeometry x="-0.0052" y="-50" width="50" height="50" relative="1" as="geometry">
            <mxPoint x="-3976" y="-73" as="sourcePoint" />
            <mxPoint x="-3727" y="-360" as="targetPoint" />
            <mxPoint y="1" as="offset" />
          </mxGeometry>
        </mxCell>
        <mxCell id="b_SJug2i7i0UwpOHzamp-150" value="Connect(&lt;div&gt;192.168.2.1&lt;/div&gt;&lt;div&gt;, 8080)&lt;/div&gt;" style="endArrow=classic;html=1;rounded=0;exitX=0.25;exitY=1;exitDx=0;exitDy=0;entryX=0.219;entryY=-0.189;entryDx=0;entryDy=0;entryPerimeter=0;" edge="1" parent="1" source="b_SJug2i7i0UwpOHzamp-151" target="b_SJug2i7i0UwpOHzamp-136">
          <mxGeometry width="50" height="50" relative="1" as="geometry">
            <mxPoint x="-4093" y="-334" as="sourcePoint" />
            <mxPoint x="-4138" y="-230" as="targetPoint" />
          </mxGeometry>
        </mxCell>
        <mxCell id="b_SJug2i7i0UwpOHzamp-151" value="APP&lt;div&gt;&lt;div style=&quot;&quot;&gt;&lt;span style=&quot;background-color: initial;&quot;&gt;IPv4-Only&lt;/span&gt;&lt;/div&gt;&lt;div data-sider-select-id=&quot;33506169-b03d-43fa-859e-f544d424c816&quot;&gt;&lt;br&gt;&lt;/div&gt;&lt;/div&gt;" style="rounded=1;whiteSpace=wrap;html=1;align=center;verticalAlign=middle;" vertex="1" parent="1">
          <mxGeometry x="-4228" y="-420" width="220" height="66" as="geometry" />
        </mxCell>
        <mxCell id="b_SJug2i7i0UwpOHzamp-152" value="send(hello)" style="endArrow=classic;html=1;rounded=0;fillColor=#dae8fc;strokeColor=#6c8ebf;edgeStyle=orthogonalEdgeStyle;strokeWidth=3;entryX=0.75;entryY=0;entryDx=0;entryDy=0;" edge="1" parent="1" target="b_SJug2i7i0UwpOHzamp-136">
          <mxGeometry width="50" height="50" relative="1" as="geometry">
            <mxPoint x="-4068" y="-350" as="sourcePoint" />
            <mxPoint x="-3658" y="-125" as="targetPoint" />
          </mxGeometry>
        </mxCell>
        <mxCell id="b_SJug2i7i0UwpOHzamp-153" value="IPv4" style="endArrow=classic;html=1;rounded=0;exitX=0.5;exitY=1;exitDx=0;exitDy=0;fillColor=#dae8fc;strokeColor=#6c8ebf;edgeStyle=orthogonalEdgeStyle;strokeWidth=3;entryX=0;entryY=0.5;entryDx=0;entryDy=0;" edge="1" parent="1" source="b_SJug2i7i0UwpOHzamp-132" target="b_SJug2i7i0UwpOHzamp-155">
          <mxGeometry width="50" height="50" relative="1" as="geometry">
            <mxPoint x="-3917" y="-73" as="sourcePoint" />
            <mxPoint x="-3658" y="-125" as="targetPoint" />
          </mxGeometry>
        </mxCell>
        <mxCell id="b_SJug2i7i0UwpOHzamp-154" value="" style="group" vertex="1" connectable="0" parent="1">
          <mxGeometry x="-3961" y="-98" width="80" height="30" as="geometry" />
        </mxCell>
        <mxCell id="b_SJug2i7i0UwpOHzamp-155" value="Router&amp;nbsp;&amp;nbsp;&lt;div style=&quot;font-size: 13px;&quot;&gt;IPv4|IPv6&lt;/div&gt;" style="rounded=0;whiteSpace=wrap;html=1;fontSize=13;verticalAlign=middle;align=right;fillColor=#dae8fc;strokeColor=none;" vertex="1" parent="b_SJug2i7i0UwpOHzamp-154">
          <mxGeometry width="80" height="30" as="geometry" />
        </mxCell>
        <mxCell id="b_SJug2i7i0UwpOHzamp-156" value="" style="sketch=0;points=[[0.5,0,0],[1,0.5,0],[0.5,1,0],[0,0.5,0],[0.145,0.145,0],[0.8555,0.145,0],[0.855,0.8555,0],[0.145,0.855,0]];verticalLabelPosition=bottom;html=1;verticalAlign=top;aspect=fixed;align=center;pointerEvents=1;shape=mxgraph.cisco19.rect;prIcon=router;fillColor=#dae8fc;strokeColor=#6c8ebf;" vertex="1" parent="b_SJug2i7i0UwpOHzamp-154">
          <mxGeometry x="5" y="5" width="20" height="20" as="geometry" />
        </mxCell>
        <mxCell id="b_SJug2i7i0UwpOHzamp-157" value="" style="group" vertex="1" connectable="0" parent="1">
          <mxGeometry x="-4012" y="-530" width="120" height="50" as="geometry" />
        </mxCell>
        <mxCell id="b_SJug2i7i0UwpOHzamp-158" value="DNS&amp;nbsp; &amp;nbsp;&amp;nbsp;" style="rounded=1;whiteSpace=wrap;html=1;align=right;verticalAlign=middle;container=0;" vertex="1" parent="b_SJug2i7i0UwpOHzamp-157">
          <mxGeometry width="120" height="50" as="geometry" />
        </mxCell>
        <mxCell id="b_SJug2i7i0UwpOHzamp-160" value="A" style="rounded=0;whiteSpace=wrap;html=1;" vertex="1" parent="b_SJug2i7i0UwpOHzamp-157">
          <mxGeometry x="30" y="30" width="30" height="10" as="geometry" />
        </mxCell>
        <mxCell id="b_SJug2i7i0UwpOHzamp-161" value="1" style="ellipse;whiteSpace=wrap;html=1;aspect=fixed;fontSize=10;strokeColor=none;fillColor=#4D4D4D;fontColor=#FFFFFF;" vertex="1" parent="1">
          <mxGeometry x="-3802" y="-330" width="20" height="20" as="geometry" />
        </mxCell>
        <mxCell id="b_SJug2i7i0UwpOHzamp-162" value="4" style="ellipse;whiteSpace=wrap;html=1;aspect=fixed;fontSize=10;strokeColor=none;fillColor=#4D4D4D;fontColor=#FFFFFF;" vertex="1" parent="1">
          <mxGeometry x="-3672" y="-330" width="20" height="20" as="geometry" />
        </mxCell>
        <mxCell id="b_SJug2i7i0UwpOHzamp-163" value="3" style="ellipse;whiteSpace=wrap;html=1;aspect=fixed;fontSize=10;strokeColor=none;fillColor=#4D4D4D;fontColor=#FFFFFF;" vertex="1" parent="1">
          <mxGeometry x="-4058" y="-330" width="20" height="20" as="geometry" />
        </mxCell>
        <mxCell id="b_SJug2i7i0UwpOHzamp-164" value="2" style="ellipse;whiteSpace=wrap;html=1;aspect=fixed;fontSize=10;strokeColor=none;fillColor=#4D4D4D;fontColor=#FFFFFF;" vertex="1" parent="1">
          <mxGeometry x="-4213" y="-330" width="20" height="20" as="geometry" />
        </mxCell>
        <mxCell id="b_SJug2i7i0UwpOHzamp-165" value="192.168.2.1" style="endArrow=classic;html=1;rounded=0;exitX=0;exitY=0.5;exitDx=0;exitDy=0;dashed=1;edgeStyle=orthogonalEdgeStyle;entryX=0.456;entryY=-0.041;entryDx=0;entryDy=0;entryPerimeter=0;" edge="1" parent="1" source="b_SJug2i7i0UwpOHzamp-160" target="b_SJug2i7i0UwpOHzamp-151">
          <mxGeometry width="50" height="50" relative="1" as="geometry">
            <mxPoint x="-4169.5" y="-440" as="sourcePoint" />
            <mxPoint x="-4089.5" y="-464" as="targetPoint" />
          </mxGeometry>
        </mxCell>
        <mxCell id="b_SJug2i7i0UwpOHzamp-207" value="" style="rounded=0;whiteSpace=wrap;html=1;gradientColor=default;fillColor=none;strokeColor=#0d4cde;strokeWidth=1;" vertex="1" parent="1">
          <mxGeometry x="-3712" y="-850" width="96" height="20" as="geometry" />
        </mxCell>
        <mxCell id="b_SJug2i7i0UwpOHzamp-208" value="" style="rounded=0;whiteSpace=wrap;html=1;gradientColor=default;fillColor=none;strokeColor=#0d4cde;strokeWidth=1;" vertex="1" parent="1">
          <mxGeometry x="-4212" y="-850" width="96" height="20" as="geometry" />
        </mxCell>
        <mxCell id="b_SJug2i7i0UwpOHzamp-209" value="IPv4-Only -- v4-&amp;gt;v4" style="rounded=0;whiteSpace=wrap;html=1;align=left;fontSize=14;strokeColor=none;labelBorderColor=none;fontStyle=1;fillColor=none;" vertex="1" parent="1">
          <mxGeometry x="-4222" y="-1100" width="240" height="40" as="geometry" />
        </mxCell>
        <mxCell id="b_SJug2i7i0UwpOHzamp-210" value="Host Node" style="whiteSpace=wrap;html=1;rounded=1;verticalAlign=bottom;align=right;" vertex="1" parent="1">
          <mxGeometry x="-4218" y="-798" width="220" height="145" as="geometry" />
        </mxCell>
        <mxCell id="b_SJug2i7i0UwpOHzamp-211" value="" style="group" vertex="1" connectable="0" parent="1">
          <mxGeometry x="-4208" y="-780" width="210" height="120" as="geometry" />
        </mxCell>
        <mxCell id="b_SJug2i7i0UwpOHzamp-212" value="&lt;div style=&quot;&quot;&gt;&lt;span style=&quot;background-color: initial;&quot;&gt;NIC&amp;nbsp;&lt;/span&gt;&lt;/div&gt;" style="rounded=1;whiteSpace=wrap;html=1;fontSize=10;strokeWidth=1;align=center;" vertex="1" parent="b_SJug2i7i0UwpOHzamp-211">
          <mxGeometry y="85" width="200" height="20" as="geometry" />
        </mxCell>
        <mxCell id="b_SJug2i7i0UwpOHzamp-213" value="Data Link Layer" style="rounded=1;whiteSpace=wrap;html=1;fontSize=10;strokeWidth=1;align=center;" vertex="1" parent="b_SJug2i7i0UwpOHzamp-211">
          <mxGeometry y="59" width="200" height="20" as="geometry" />
        </mxCell>
        <mxCell id="b_SJug2i7i0UwpOHzamp-214" value="IPv4&lt;div&gt;192.168.1.1/24&lt;/div&gt;" style="rounded=1;whiteSpace=wrap;html=1;fontSize=10;strokeWidth=1;fontStyle=1" vertex="1" parent="b_SJug2i7i0UwpOHzamp-211">
          <mxGeometry y="25" width="200" height="29.5" as="geometry" />
        </mxCell>
        <mxCell id="b_SJug2i7i0UwpOHzamp-215" value="TCP/UDP" style="rounded=1;whiteSpace=wrap;html=1;fontSize=10;strokeWidth=1;align=center;" vertex="1" parent="b_SJug2i7i0UwpOHzamp-211">
          <mxGeometry width="200" height="20" as="geometry" />
        </mxCell>
        <mxCell id="b_SJug2i7i0UwpOHzamp-216" value="" style="endArrow=classic;html=1;rounded=0;edgeStyle=orthogonalEdgeStyle;strokeWidth=3;" edge="1" parent="b_SJug2i7i0UwpOHzamp-211">
          <mxGeometry width="50" height="50" relative="1" as="geometry">
            <mxPoint x="166" y="10" as="sourcePoint" />
            <mxPoint x="166" y="90" as="targetPoint" />
          </mxGeometry>
        </mxCell>
        <mxCell id="b_SJug2i7i0UwpOHzamp-217" value="Host Node" style="whiteSpace=wrap;html=1;rounded=1;verticalAlign=bottom;align=right;" vertex="1" parent="1">
          <mxGeometry x="-3827" y="-799.5" width="220" height="145" as="geometry" />
        </mxCell>
        <mxCell id="b_SJug2i7i0UwpOHzamp-218" value="" style="group" vertex="1" connectable="0" parent="1">
          <mxGeometry x="-3817" y="-780.5" width="210" height="120" as="geometry" />
        </mxCell>
        <mxCell id="b_SJug2i7i0UwpOHzamp-219" value="&lt;div style=&quot;&quot;&gt;&lt;span style=&quot;background-color: initial;&quot;&gt;NIC&amp;nbsp;&lt;/span&gt;&lt;/div&gt;" style="rounded=1;whiteSpace=wrap;html=1;fontSize=10;strokeWidth=1;align=center;" vertex="1" parent="b_SJug2i7i0UwpOHzamp-218">
          <mxGeometry y="85" width="200" height="20" as="geometry" />
        </mxCell>
        <mxCell id="b_SJug2i7i0UwpOHzamp-220" value="Data Link Layer" style="rounded=1;whiteSpace=wrap;html=1;fontSize=10;strokeWidth=1;align=center;" vertex="1" parent="b_SJug2i7i0UwpOHzamp-218">
          <mxGeometry y="59" width="200" height="20" as="geometry" />
        </mxCell>
        <mxCell id="b_SJug2i7i0UwpOHzamp-221" value="IPv4&lt;div&gt;192.168.2.1/24&lt;/div&gt;" style="rounded=1;whiteSpace=wrap;html=1;fontSize=10;strokeWidth=1;fontStyle=1" vertex="1" parent="b_SJug2i7i0UwpOHzamp-218">
          <mxGeometry y="25" width="200" height="29.5" as="geometry" />
        </mxCell>
        <mxCell id="b_SJug2i7i0UwpOHzamp-222" value="TCP/UDP" style="rounded=1;whiteSpace=wrap;html=1;fontSize=10;strokeWidth=1;align=center;" vertex="1" parent="b_SJug2i7i0UwpOHzamp-218">
          <mxGeometry width="200" height="20" as="geometry" />
        </mxCell>
        <mxCell id="b_SJug2i7i0UwpOHzamp-223" value="" style="endArrow=classic;html=1;rounded=0;edgeStyle=orthogonalEdgeStyle;strokeWidth=3;" edge="1" parent="b_SJug2i7i0UwpOHzamp-218">
          <mxGeometry x="-0.0052" y="-50" width="50" height="50" relative="1" as="geometry">
            <mxPoint x="165" y="100.5" as="sourcePoint" />
            <mxPoint x="165" y="3" as="targetPoint" />
            <mxPoint y="1" as="offset" />
          </mxGeometry>
        </mxCell>
        <mxCell id="b_SJug2i7i0UwpOHzamp-224" value="IPv4" style="endArrow=classic;html=1;rounded=0;exitX=1;exitY=0.5;exitDx=0;exitDy=0;edgeStyle=orthogonalEdgeStyle;strokeWidth=3;entryX=0.5;entryY=1;entryDx=0;entryDy=0;" edge="1" parent="1" source="b_SJug2i7i0UwpOHzamp-233" target="b_SJug2i7i0UwpOHzamp-219">
          <mxGeometry width="50" height="50" relative="1" as="geometry">
            <mxPoint x="-3847" y="-666" as="sourcePoint" />
            <mxPoint x="-3712" y="-668" as="targetPoint" />
          </mxGeometry>
        </mxCell>
        <mxCell id="b_SJug2i7i0UwpOHzamp-225" value="APP&lt;div&gt;&lt;div style=&quot;&quot;&gt;&lt;span style=&quot;background-color: initial;&quot;&gt;IPv4-Only&lt;/span&gt;&lt;/div&gt;&lt;div data-sider-select-id=&quot;33506169-b03d-43fa-859e-f544d424c816&quot;&gt;&lt;br&gt;&lt;/div&gt;&lt;/div&gt;" style="rounded=1;whiteSpace=wrap;html=1;align=center;verticalAlign=middle;" vertex="1" parent="1">
          <mxGeometry x="-3822" y="-960" width="220" height="66" as="geometry" />
        </mxCell>
        <mxCell id="b_SJug2i7i0UwpOHzamp-226" value="bind(&quot;0.0.0.0&quot;)" style="endArrow=classic;html=1;rounded=0;exitX=0.25;exitY=1;exitDx=0;exitDy=0;edgeStyle=orthogonalEdgeStyle;strokeWidth=1;" edge="1" parent="1" source="b_SJug2i7i0UwpOHzamp-225">
          <mxGeometry width="50" height="50" relative="1" as="geometry">
            <mxPoint x="-3966" y="-613" as="sourcePoint" />
            <mxPoint x="-3767" y="-776" as="targetPoint" />
          </mxGeometry>
        </mxCell>
        <mxCell id="b_SJug2i7i0UwpOHzamp-227" value="recv(&lt;div&gt;192.168.1.1&lt;br&gt;&lt;div&gt;, hello)&lt;/div&gt;&lt;/div&gt;" style="endArrow=classic;html=1;rounded=0;exitX=0.5;exitY=0;exitDx=0;exitDy=0;edgeStyle=orthogonalEdgeStyle;strokeWidth=3;" edge="1" parent="1" source="b_SJug2i7i0UwpOHzamp-222">
          <mxGeometry x="-0.0052" y="-50" width="50" height="50" relative="1" as="geometry">
            <mxPoint x="-3966" y="-613" as="sourcePoint" />
            <mxPoint x="-3717" y="-900" as="targetPoint" />
            <mxPoint y="1" as="offset" />
          </mxGeometry>
        </mxCell>
        <mxCell id="b_SJug2i7i0UwpOHzamp-228" value="Connect(&lt;div&gt;192.168.2.1&lt;/div&gt;&lt;div&gt;, 8080)&lt;/div&gt;" style="endArrow=classic;html=1;rounded=0;exitX=0.25;exitY=1;exitDx=0;exitDy=0;entryX=0.219;entryY=-0.189;entryDx=0;entryDy=0;entryPerimeter=0;" edge="1" parent="1" source="b_SJug2i7i0UwpOHzamp-229" target="b_SJug2i7i0UwpOHzamp-215">
          <mxGeometry width="50" height="50" relative="1" as="geometry">
            <mxPoint x="-4083" y="-874" as="sourcePoint" />
            <mxPoint x="-4128" y="-770" as="targetPoint" />
          </mxGeometry>
        </mxCell>
        <mxCell id="b_SJug2i7i0UwpOHzamp-229" value="APP&lt;div&gt;&lt;div style=&quot;&quot;&gt;&lt;span style=&quot;background-color: initial;&quot;&gt;IPv4-Only&lt;/span&gt;&lt;/div&gt;&lt;div data-sider-select-id=&quot;33506169-b03d-43fa-859e-f544d424c816&quot;&gt;&lt;br&gt;&lt;/div&gt;&lt;/div&gt;" style="rounded=1;whiteSpace=wrap;html=1;align=center;verticalAlign=middle;" vertex="1" parent="1">
          <mxGeometry x="-4218" y="-960" width="220" height="66" as="geometry" />
        </mxCell>
        <mxCell id="b_SJug2i7i0UwpOHzamp-230" value="send(hello)" style="endArrow=classic;html=1;rounded=0;edgeStyle=orthogonalEdgeStyle;strokeWidth=3;entryX=0.75;entryY=0;entryDx=0;entryDy=0;" edge="1" parent="1" target="b_SJug2i7i0UwpOHzamp-215">
          <mxGeometry width="50" height="50" relative="1" as="geometry">
            <mxPoint x="-4058" y="-890" as="sourcePoint" />
            <mxPoint x="-3648" y="-665" as="targetPoint" />
          </mxGeometry>
        </mxCell>
        <mxCell id="b_SJug2i7i0UwpOHzamp-231" value="IPv4" style="endArrow=classic;html=1;rounded=0;exitX=0.5;exitY=1;exitDx=0;exitDy=0;edgeStyle=orthogonalEdgeStyle;strokeWidth=3;entryX=0;entryY=0.5;entryDx=0;entryDy=0;" edge="1" parent="1" source="b_SJug2i7i0UwpOHzamp-212" target="b_SJug2i7i0UwpOHzamp-233">
          <mxGeometry width="50" height="50" relative="1" as="geometry">
            <mxPoint x="-3907" y="-613" as="sourcePoint" />
            <mxPoint x="-3648" y="-665" as="targetPoint" />
          </mxGeometry>
        </mxCell>
        <mxCell id="b_SJug2i7i0UwpOHzamp-232" value="" style="group" vertex="1" connectable="0" parent="1">
          <mxGeometry x="-3951" y="-638" width="80" height="30" as="geometry" />
        </mxCell>
        <mxCell id="b_SJug2i7i0UwpOHzamp-233" value="Router&amp;nbsp;&amp;nbsp;&lt;div&gt;&lt;span style=&quot;background-color: initial;&quot;&gt;IPv4&amp;nbsp; &amp;nbsp;&amp;nbsp;&lt;/span&gt;&lt;/div&gt;" style="rounded=0;whiteSpace=wrap;html=1;fontSize=13;verticalAlign=middle;align=right;" vertex="1" parent="b_SJug2i7i0UwpOHzamp-232">
          <mxGeometry width="80" height="30" as="geometry" />
        </mxCell>
        <mxCell id="b_SJug2i7i0UwpOHzamp-234" value="" style="sketch=0;points=[[0.5,0,0],[1,0.5,0],[0.5,1,0],[0,0.5,0],[0.145,0.145,0],[0.8555,0.145,0],[0.855,0.8555,0],[0.145,0.855,0]];verticalLabelPosition=bottom;html=1;verticalAlign=top;aspect=fixed;align=center;pointerEvents=1;shape=mxgraph.cisco19.rect;prIcon=router;" vertex="1" parent="b_SJug2i7i0UwpOHzamp-232">
          <mxGeometry x="5" y="5" width="20" height="20" as="geometry" />
        </mxCell>
        <mxCell id="b_SJug2i7i0UwpOHzamp-235" value="" style="group" vertex="1" connectable="0" parent="1">
          <mxGeometry x="-4002" y="-1070" width="120" height="50" as="geometry" />
        </mxCell>
        <mxCell id="b_SJug2i7i0UwpOHzamp-236" value="DNS&amp;nbsp; &amp;nbsp;&amp;nbsp;" style="rounded=1;whiteSpace=wrap;html=1;align=right;verticalAlign=middle;container=0;" vertex="1" parent="b_SJug2i7i0UwpOHzamp-235">
          <mxGeometry width="120" height="50" as="geometry" />
        </mxCell>
        <mxCell id="b_SJug2i7i0UwpOHzamp-238" value="A" style="rounded=0;whiteSpace=wrap;html=1;" vertex="1" parent="b_SJug2i7i0UwpOHzamp-235">
          <mxGeometry x="30" y="30" width="30" height="10" as="geometry" />
        </mxCell>
        <mxCell id="b_SJug2i7i0UwpOHzamp-239" value="1" style="ellipse;whiteSpace=wrap;html=1;aspect=fixed;fontSize=10;strokeColor=none;fillColor=#4D4D4D;fontColor=#FFFFFF;" vertex="1" parent="1">
          <mxGeometry x="-3792" y="-870" width="20" height="20" as="geometry" />
        </mxCell>
        <mxCell id="b_SJug2i7i0UwpOHzamp-240" value="4" style="ellipse;whiteSpace=wrap;html=1;aspect=fixed;fontSize=10;strokeColor=none;fillColor=#4D4D4D;fontColor=#FFFFFF;" vertex="1" parent="1">
          <mxGeometry x="-3662" y="-870" width="20" height="20" as="geometry" />
        </mxCell>
        <mxCell id="b_SJug2i7i0UwpOHzamp-241" value="3" style="ellipse;whiteSpace=wrap;html=1;aspect=fixed;fontSize=10;strokeColor=none;fillColor=#4D4D4D;fontColor=#FFFFFF;" vertex="1" parent="1">
          <mxGeometry x="-4048" y="-870" width="20" height="20" as="geometry" />
        </mxCell>
        <mxCell id="b_SJug2i7i0UwpOHzamp-242" value="2" style="ellipse;whiteSpace=wrap;html=1;aspect=fixed;fontSize=10;strokeColor=none;fillColor=#4D4D4D;fontColor=#FFFFFF;" vertex="1" parent="1">
          <mxGeometry x="-4203" y="-870" width="20" height="20" as="geometry" />
        </mxCell>
        <mxCell id="b_SJug2i7i0UwpOHzamp-243" value="192.168.2.1" style="endArrow=classic;html=1;rounded=0;exitX=0;exitY=0.5;exitDx=0;exitDy=0;dashed=1;edgeStyle=orthogonalEdgeStyle;entryX=0.456;entryY=-0.041;entryDx=0;entryDy=0;entryPerimeter=0;" edge="1" parent="1" source="b_SJug2i7i0UwpOHzamp-238" target="b_SJug2i7i0UwpOHzamp-229">
          <mxGeometry width="50" height="50" relative="1" as="geometry">
            <mxPoint x="-4159.5" y="-980" as="sourcePoint" />
            <mxPoint x="-4079.5" y="-1004" as="targetPoint" />
          </mxGeometry>
        </mxCell>
      </root>
    </mxGraphModel>
  </diagram>
</mxfile>
